:SAMPLES-PER-SECOND 30
:FRAME-RANGE 1-2643
:FULLY-SPECIFIED
:DEGREES
1157
root  -82.0982 30.0303 44.3747 -178.198 23.4699 178.362
RightUpLeg  -39.1779 -14.1737 -21.8741
RightLeg  83.4194 -1.38351 -19.8462
RightFoot  -23.458 1.41912 14.8041
RightToes  7.56698e-010 0 -3.6325e-017
Spine  28.2156 0.398569 -16.1006
Spine1  -8.57394 -3.34151 -1.94824
HEad  -5.60899 -15.7126 15.5545
LeftShoulder1  1.46206 -1.5187 -22.8096
LeftArm  28.738 -20.41 -54.3699
LeftForeArm  23.496 -41.0624 -8.22199
LeftHand  0.437294 -2.96988 -5.85587
RightShoulder  -1.12517 -7.13308 24.424
RightArm  -9.2961 -11.1321 2.81002
RightForeArm  -22.19 11.8805 12.1115
RightHand  0.379674 -0.212681 8.58269
LeftUpLeg  -27.7253 10.2925 29.6571
LeftLeg  56.0642 -7.75881 -11.7266
LeftFoot  -27.4131 -5.31142 -37.4876
LeftToes  1.48244e-010 1.61973e-010 3.308e-011
1158
root  -81.1531 30.4038 44.7131 -179.804 28.2407 176.168
RightUpLeg  -38.654 -12.8662 -21.5318
RightLeg  83.569 -1.15351 -17.8299
RightFoot  -22.0559 1.13403 13.6376
RightToes  7.56698e-010 0 -3.6325e-017
Spine  26.3671 -0.201899 -16.2617
Spine1  -8.28189 -3.45741 -3.66587
HEad  -4.07619 -11.4841 13.3733
LeftShoulder1  1.83679 -2.51227 -24.3144
LeftArm  34.5919 -15.5546 -62.8239
LeftForeArm  28.9269 -45.7321 -9.44014
LeftHand  0.58416 -3.21821 -7.64396
RightShoulder  -0.923011 -7.21813 17.9689
RightArm  -15.1509 -8.99207 1.31016
RightForeArm  -21.6355 13.2144 10.765
RightHand  0.304298 -0.419388 7.20672
LeftUpLeg  -20.6082 11.7534 29.8154
LeftLeg  49.2678 -8.33622 -9.81443
LeftFoot  -25.5585 -5.00646 -39.7982
LeftToes  1.48244e-010 1.61973e-010 3.308e-011
1159
root  -79.9015 30.8265 45.0959 178.504 32.7632 173.165
RightUpLeg  -37.3232 -13.7068 -19.7439
RightLeg  84.1046 -0.639631 -13.2329
RightFoot  -20.9992 1.1996 15.8036
RightToes  7.56698e-010 0 -3.6325e-017
Spine  24.3829 -1.31443 -15.8202
Spine1  -9.3365 -3.99609 -5.85215
HEad  -1.29432 -6.97655 10.9402
LeftShoulder1  1.94048 -2.56129 -25.8427
LeftArm  36.8601 -11.1896 -65.2124
LeftForeArm  30.5511 -52.5662 -12.2135
LeftHand  0.735042 -2.50152 -10.6103
RightShoulder  -0.442853 -5.86651 11.333
RightArm  -20.2202 -4.51723 -0.644251
RightForeArm  -17.4172 15.5668 8.93045
RightHand  0.354718 0.689664 6.72285
LeftUpLeg  -13.0712 12.7015 29.7231
LeftLeg  40.5618 -8.70324 -7.52858
LeftFoot  -21.9592 -4.18775 -44.2597
LeftToes  1.48244e-010 1.61973e-010 3.308e-011
1160
root  -78.3869 31.3973 45.4986 176.225 37.1999 169.708
RightUpLeg  -33.3321 -16.1434 -16.6892
RightLeg  83.0972 -0.892781 -13.3759
RightFoot  -26.4819 3.13561 24.6087
RightToes  7.56698e-010 0 -3.6325e-017
Spine  22.492 -2.25559 -13.9904
Spine1  -10.5252 -4.16072 -7.80221
HEad  1.25289 -2.34217 7.16734
LeftShoulder1  1.79881 -1.87342 -27.3465
LeftArm  34.0247 -5.96619 -58.9856
LeftForeArm  33.7378 -64.9298 -21.0163
LeftHand  0.8272 -0.648224 -15.8351
RightShoulder  0.0302879 -3.26014 5.28767
RightArm  -22.5176 0.218955 -3.36761
RightForeArm  -18.7762 21.0807 6.34877
RightHand  0.340059 1.01851 6.07572
LeftUpLeg  -5.71384 13.9652 29.978
LeftLeg  31.6175 -8.13588 -5.02376
LeftFoot  -12.6772 -0.549502 -50.1962
LeftToes  1.48244e-010 1.61973e-010 3.308e-011
1161
root  -76.7787 32.0564 45.9785 174.954 39.8964 167.148
RightUpLeg  -27.8888 -18.7029 -13.3275
RightLeg  76.4384 -3.09015 -15.9656
RightFoot  -34.1073 5.40823 27.5452
RightToes  7.56698e-010 0 -3.6325e-017
Spine  20.5429 -3.16248 -10.2613
Spine1  -10.1925 -3.86243 -8.24705
HEad  1.50914 0.548994 3.09134
LeftShoulder1  1.50669 -0.913581 -28.0106
LeftArm  26.0139 -0.0465108 -49.9898
LeftForeArm  40.1382 -72.9755 -34.5947
LeftHand  0.684164 1.10917 -18.8056
RightShoulder  0.216663 -0.849317 -0.335266
RightArm  -29.9264 3.82229 -7.25556
RightForeArm  -13.5536 26.7512 6.43304
RightHand  0.291324 1.31508 4.93172
LeftUpLeg  -2.52531 13.235 30.0324
LeftLeg  25.4039 -4.50575 -1.99777
LeftFoot  1.97175 6.30847 -50.7739
LeftToes  1.48244e-010 1.61973e-010 3.308e-011
1162
root  -74.9993 32.7652 46.6153 174.792 40.6362 165.736
RightUpLeg  -23.547 -18.5394 -10.8052
RightLeg  69.2968 -5.33622 -16.071
RightFoot  -38.7066 5.36714 22.8762
RightToes  7.56698e-010 0 -3.6325e-017
Spine  18.5519 -3.57006 -5.06651
Spine1  -9.14439 -2.88262 -10.0799
HEad  1.47752 1.06734 0.37906
LeftShoulder1  1.16542 -0.0101472 -27.0291
LeftArm  18.2325 5.04158 -41.6748
LeftForeArm  39.6412 -71.5907 -30.9568
LeftHand  0.681889 0.805965 -17.4542
RightShoulder  0.121008 0.41614 -6.17981
RightArm  -35.3737 5.04113 -10.578
RightForeArm  -8.58883 30.5528 7.13345
RightHand  0.20902 1.65864 3.30094
LeftUpLeg  -4.95775 10.4274 28.3783
LeftLeg  24.674 -1.18003 -0.263735
LeftFoot  20.3124 7.15112 -25.3218
LeftToes  1.48244e-010 1.61973e-010 3.308e-011
1163
root  -73.1758 33.3575 47.4162 174.888 40.666 165.129
RightUpLeg  -21.1064 -18.6035 -7.42306
RightLeg  65.1745 -7.3303 -17.4204
RightFoot  -38.7877 4.78823 20.5125
RightToes  7.56698e-010 0 -3.6325e-017
Spine  17.7975 -3.211 -0.744034
Spine1  -8.52353 -1.55545 -12.6991
HEad  1.18648 0.0192718 -1.43016
LeftShoulder1  0.835758 0.889134 -25.7729
LeftArm  11.8426 9.32111 -33.3812
LeftForeArm  34.0355 -65.2822 -21.3824
LeftHand  0.574173 0.668277 -14.2956
RightShoulder  -0.025792 0.169033 -10.5679
RightArm  -39.4537 6.76102 -12.2385
RightForeArm  -5.98308 30.8128 7.06556
RightHand  0.328712 2.39607 4.7097
LeftUpLeg  -10.5985 12.4838 26.5496
LeftLeg  31.5409 2.21294 1.80863
LeftFoot  16.2334 3.70631 -15.4375
LeftToes  1.48244e-010 1.61973e-010 3.308e-011
1164
root  -71.0645 34.1456 48.295 175.54 39.5677 165.587
RightUpLeg  -17.1087 -20.6244 -3.27215
RightLeg  58.6596 -10.2629 -17.9994
RightFoot  -37.622 3.86098 17.5299
RightToes  7.56698e-010 0 -3.6325e-017
Spine  17.5911 -2.76023 1.1741
Spine1  -8.30349 -0.779214 -13.6741
HEad  1.12082 -2.69251 -0.772914
LeftShoulder1  0.419994 2.05337 -22.605
LeftArm  6.65207 16.7275 -24.4474
LeftForeArm  31.595 -63.4578 -19.7182
LeftHand  0.597857 0.444327 -14.1651
RightShoulder  -0.0655845 0.535173 -11.6237
RightArm  -39.0727 6.93542 -12.351
RightForeArm  -7.43361 28.4874 6.55479
RightHand  0.207024 1.93537 3.11926
LeftUpLeg  -17.785 17.603 22.9534
LeftLeg  39.4752 7.46483 6.91059
LeftFoot  10.6433 2.14165 -11.3333
LeftToes  1.48244e-010 1.61973e-010 3.308e-011
1165
root  -68.4824 35.086 49.1987 176.159 37.833 165.731
RightUpLeg  -11.1783 -22.6276 0.34827
RightLeg  48.6149 -13.0574 -15.6917
RightFoot  -35.0961 2.89012 14.8151
RightToes  7.56698e-010 0 -3.6325e-017
Spine  17.5778 -1.67575 -0.401949
Spine1  -8.54091 -0.104815 -13.7071
HEad  1.45342 -6.34419 1.75699
LeftShoulder1  -0.0718744 3.80562 -17.0785
LeftArm  4.98748 25.4064 -15.3827
LeftForeArm  31.9191 -68.2416 -25.7702
LeftHand  0.475312 1.6155 -15.0656
RightShoulder  0.0109198 -0.162626 -9.38653
RightArm  -34.805 5.72028 -11.2225
RightForeArm  -7.82584 24.1166 5.54876
RightHand  0.392738 2.86113 5.30586
LeftUpLeg  -24.9051 23.7494 16.0267
LeftLeg  44.5686 8.30376 9.0543
LeftFoot  4.59524 1.2641 -9.2167
LeftToes  1.48244e-010 1.61973e-010 3.308e-011
1166
root  -65.7197 36.0917 50.0854 178.498 34.2543 166.971
RightUpLeg  -6.61173 -28.4641 4.31605
RightLeg  37.8915 -12.4074 -10.4371
RightFoot  -28.1051 1.79047 13.3997
RightToes  7.56698e-010 0 -3.6325e-017
Spine  16.7411 -0.47638 -3.30661
Spine1  -9.10638 0.226539 -12.1309
HEad  2.65639 -10.8445 3.98202
LeftShoulder1  -0.29376 5.07 -11.5302
LeftArm  6.03773 30.8075 -6.15653
LeftForeArm  35.5764 -72.9215 -35.53
LeftHand  0.35758 2.48625 -15.1553
RightShoulder  0.063546 -2.09647 -4.613
RightArm  -33.5842 2.55308 -10.145
RightForeArm  -7.64945 17.2294 6.73017
RightHand  0.422869 3.00714 5.61756
LeftUpLeg  -33.2019 28.8561 6.3329
LeftLeg  46.8346 5.17696 6.29879
LeftFoot  -1.62354 1.12609 -13.0881
LeftToes  1.48244e-010 1.61973e-010 3.308e-011
1167
root  -62.9167 37.0074 50.8691 -178.161 29.2998 170.148
RightUpLeg  -3.63651 -38.9894 7.93954
RightLeg  30.5851 -3.40409 -2.42154
RightFoot  -15.1731 0.379248 14.3609
RightToes  7.56698e-010 0 -3.6325e-017
Spine  15.4711 0.383725 -5.03788
Spine1  -8.64367 0.420345 -9.02665
HEad  4.06283 -15.099 4.98116
LeftShoulder1  -0.242713 5.09169 -7.67465
LeftArm  7.82229 32.5751 1.08767
LeftForeArm  40.7614 -74.8802 -41.5138
LeftHand  0.320728 2.69457 -14.8077
RightShoulder  -0.183531 -5.27363 2.10518
RightArm  -36.2724 -2.05186 -9.53519
RightForeArm  -4.78342 8.82215 7.74774
RightHand  0.376573 2.13855 5.63142
LeftUpLeg  -39.3301 31.1942 -2.19869
LeftLeg  47.317 -0.501262 -0.161638
LeftFoot  -6.17071 1.11357 -23.5484
LeftToes  1.48244e-010 1.61973e-010 3.308e-011
